name rise44.8762peak52.3436fall86.788.mot
datacolumns 19
datarows 36
range 0.20999900000000 0.26832800000000
endheader
time	ground_force1_vx	ground_force1_vy	ground_force1_vz	ground_force1_px	ground_force1_py	ground_force1_pz	ground_force2_vx	ground_force2_vy	ground_force2_vz	ground_force2_px	ground_force2_py	ground_force2_pz	ground_torque1_x	ground_torque1_y	ground_torque1_z	ground_torque2_x	ground_torque2_y	ground_torque2_z	
0.20999900000000	59.02220800000000	761.01123399999994	53.75615500000000	0.28653900000000	0.00000000000000	0.09684700000000	0.25717200000000	6.57169600000000	0.57811200000000	0.00000000000000	0.00000000000000	0.00000000000000	0.00000000000000	19.39725700000000	0.00000000000000	0.00000000000000	0.02139200000000	0.00000000000000	
0.21166400000000	58.49494700000000	764.48638600000004	53.89421300000000	0.28563300000000	0.00000000000000	0.09684900000000	0.37008900000000	3.18153900000000	0.33830500000000	0.00000000000000	0.00000000000000	0.00000000000000	0.00000000000000	19.44496600000000	0.00000000000000	0.00000000000000	0.03661200000000	0.00000000000000	
0.21332900000000	57.96367200000000	767.80962000000000	54.02504900000000	0.28474500000000	0.00000000000000	0.09685000000000	0.00000000000000	0.00000000000000	0.00000000000000	0.00000000000000	0.00000000000000	0.00000000000000	0.00000000000000	19.48998400000000	0.00000000000000	0.00000000000000	0.00000000000000	0.00000000000000	
0.21499700000000	57.42896100000000	770.97878100000003	54.14878800000000	0.28387400000000	0.00000000000000	0.09685200000000	0.00000000000000	0.00000000000000	0.00000000000000	0.00000000000000	0.00000000000000	0.00000000000000	0.00000000000000	19.53235200000000	0.00000000000000	0.00000000000000	0.00000000000000	0.00000000000000	
0.21666700000000	56.89132600000000	773.99183900000003	54.26549800000000	0.28301600000000	0.00000000000000	0.09685400000000	0.00000000000000	0.00000000000000	0.00000000000000	0.00000000000000	0.00000000000000	0.00000000000000	0.00000000000000	19.57207500000000	0.00000000000000	0.00000000000000	0.00000000000000	0.00000000000000	
0.21833300000000	56.35121900000000	776.84689800000001	54.37518600000000	0.28217200000000	0.00000000000000	0.09685600000000	0.00000000000000	0.00000000000000	0.00000000000000	0.00000000000000	0.00000000000000	0.00000000000000	0.00000000000000	19.60913200000000	0.00000000000000	0.00000000000000	0.00000000000000	0.00000000000000	
0.21999900000000	55.80903500000000	779.54221199999995	54.47780900000000	0.28133900000000	0.00000000000000	0.09685900000000	0.00000000000000	0.00000000000000	0.00000000000000	0.00000000000000	0.00000000000000	0.00000000000000	0.00000000000000	19.64347200000000	0.00000000000000	0.00000000000000	0.00000000000000	0.00000000000000	
0.22166700000000	55.26510900000000	782.07619199999999	54.57326900000000	0.28051700000000	0.00000000000000	0.09686200000000	0.00000000000000	0.00000000000000	0.00000000000000	0.00000000000000	0.00000000000000	0.00000000000000	0.00000000000000	19.67502000000000	0.00000000000000	0.00000000000000	0.00000000000000	0.00000000000000	
0.22332800000000	54.71972400000000	784.44742199999996	54.66142400000000	0.27970200000000	0.00000000000000	0.09686500000000	0.00000000000000	0.00000000000000	0.00000000000000	0.00000000000000	0.00000000000000	0.00000000000000	0.00000000000000	19.70367700000000	0.00000000000000	0.00000000000000	0.00000000000000	0.00000000000000	
0.22499500000000	54.17311000000000	786.65467000000001	54.74208600000000	0.27889400000000	0.00000000000000	0.09687000000000	0.00000000000000	0.00000000000000	0.00000000000000	0.00000000000000	0.00000000000000	0.00000000000000	0.00000000000000	19.72932100000000	0.00000000000000	0.00000000000000	0.00000000000000	0.00000000000000	
0.22666200000000	53.62545000000000	788.69689700000004	54.81503100000000	0.27809100000000	0.00000000000000	0.09687400000000	0.00000000000000	0.00000000000000	0.00000000000000	0.00000000000000	0.00000000000000	0.00000000000000	0.00000000000000	19.75181400000000	0.00000000000000	0.00000000000000	0.00000000000000	0.00000000000000	
0.22832800000000	53.07688000000000	790.57326799999998	54.87999600000000	0.27729100000000	0.00000000000000	0.09688000000000	0.00000000000000	0.00000000000000	0.00000000000000	0.00000000000000	0.00000000000000	0.00000000000000	0.00000000000000	19.77099800000000	0.00000000000000	0.00000000000000	0.00000000000000	0.00000000000000	
0.22999700000000	52.52749400000000	792.28316099999995	54.93669000000000	0.27649300000000	0.00000000000000	0.09688500000000	0.00000000000000	0.00000000000000	0.00000000000000	0.00000000000000	0.00000000000000	0.00000000000000	0.00000000000000	19.78670500000000	0.00000000000000	0.00000000000000	0.00000000000000	0.00000000000000	
0.23166900000000	51.97734900000000	793.82617800000003	54.98479500000000	0.27569400000000	0.00000000000000	0.09689200000000	0.00000000000000	0.00000000000000	0.00000000000000	0.00000000000000	0.00000000000000	0.00000000000000	0.00000000000000	19.79875300000000	0.00000000000000	0.00000000000000	0.00000000000000	0.00000000000000	
0.23332800000000	51.42646500000000	795.20215099999996	55.02397500000000	0.27489200000000	0.00000000000000	0.09689900000000	0.00000000000000	0.00000000000000	0.00000000000000	0.00000000000000	0.00000000000000	0.00000000000000	0.00000000000000	19.80695100000000	0.00000000000000	0.00000000000000	0.00000000000000	0.00000000000000	
0.23501100000000	50.87483100000000	796.41114800000003	55.05387400000000	0.27408700000000	0.00000000000000	0.09690600000000	0.00000000000000	0.00000000000000	0.00000000000000	0.00000000000000	0.00000000000000	0.00000000000000	0.00000000000000	19.81110300000000	0.00000000000000	0.00000000000000	0.00000000000000	0.00000000000000	
0.23666100000000	50.32240800000000	797.45348400000000	55.07413000000000	0.27327600000000	0.00000000000000	0.09691400000000	0.00000000000000	0.00000000000000	0.00000000000000	0.00000000000000	0.00000000000000	0.00000000000000	0.00000000000000	19.81101000000000	0.00000000000000	0.00000000000000	0.00000000000000	0.00000000000000	
0.23832900000000	49.76913300000000	798.32971999999995	55.08437200000000	0.27245800000000	0.00000000000000	0.09692300000000	0.00000000000000	0.00000000000000	0.00000000000000	0.00000000000000	0.00000000000000	0.00000000000000	0.00000000000000	19.80647200000000	0.00000000000000	0.00000000000000	0.00000000000000	0.00000000000000	
0.23999500000000	49.21492200000000	799.04067299999997	55.08423000000000	0.27163100000000	0.00000000000000	0.09693300000000	0.00000000000000	0.00000000000000	0.00000000000000	0.00000000000000	0.00000000000000	0.00000000000000	0.00000000000000	19.79729000000000	0.00000000000000	0.00000000000000	0.00000000000000	0.00000000000000	
0.24166300000000	48.65967500000000	799.58741799999996	55.07333900000000	0.27079300000000	0.00000000000000	0.09694200000000	0.00000000000000	0.00000000000000	0.00000000000000	0.00000000000000	0.00000000000000	0.00000000000000	0.00000000000000	19.78327200000000	0.00000000000000	0.00000000000000	0.00000000000000	0.00000000000000	
0.24333400000000	48.10327600000000	799.97128799999996	55.05134200000000	0.26994300000000	0.00000000000000	0.09695300000000	0.00000000000000	0.00000000000000	0.00000000000000	0.00000000000000	0.00000000000000	0.00000000000000	0.00000000000000	19.76423100000000	0.00000000000000	0.00000000000000	0.00000000000000	0.00000000000000	
0.24499500000000	47.54560200000000	800.19388000000004	55.01789800000000	0.26908000000000	0.00000000000000	0.09696400000000	0.00000000000000	0.00000000000000	0.00000000000000	0.00000000000000	0.00000000000000	0.00000000000000	0.00000000000000	19.73999100000000	0.00000000000000	0.00000000000000	0.00000000000000	0.00000000000000	
0.24666800000000	46.98652100000000	800.25705200000004	54.97268100000000	0.26820200000000	0.00000000000000	0.09697500000000	0.00000000000000	0.00000000000000	0.00000000000000	0.00000000000000	0.00000000000000	0.00000000000000	0.00000000000000	19.71038900000000	0.00000000000000	0.00000000000000	0.00000000000000	0.00000000000000	
0.24832700000000	46.42589900000000	800.16292299999998	54.91539300000000	0.26730800000000	0.00000000000000	0.09698700000000	0.00000000000000	0.00000000000000	0.00000000000000	0.00000000000000	0.00000000000000	0.00000000000000	0.00000000000000	19.67527500000000	0.00000000000000	0.00000000000000	0.00000000000000	0.00000000000000	
0.24999700000000	45.86360200000000	799.91387499999996	54.84575900000000	0.26639700000000	0.00000000000000	0.09700000000000	0.00000000000000	0.00000000000000	0.00000000000000	0.00000000000000	0.00000000000000	0.00000000000000	0.00000000000000	19.63451600000000	0.00000000000000	0.00000000000000	0.00000000000000	0.00000000000000	
0.25166200000000	45.29949800000000	799.51254700000004	54.76353600000000	0.26546800000000	0.00000000000000	0.09701200000000	0.00000000000000	0.00000000000000	0.00000000000000	0.00000000000000	0.00000000000000	0.00000000000000	0.00000000000000	19.58799900000000	0.00000000000000	0.00000000000000	0.00000000000000	0.00000000000000	
0.25333100000000	44.73346100000000	798.96183099999996	54.66851500000000	0.26451900000000	0.00000000000000	0.09702600000000	0.00000000000000	0.00000000000000	0.00000000000000	0.00000000000000	0.00000000000000	0.00000000000000	0.00000000000000	19.53562900000000	0.00000000000000	0.00000000000000	0.00000000000000	0.00000000000000	
0.25499700000000	44.16537100000000	798.26487399999996	54.56052600000000	0.26355100000000	0.00000000000000	0.09703900000000	0.00000000000000	0.00000000000000	0.00000000000000	0.00000000000000	0.00000000000000	0.00000000000000	0.00000000000000	19.47733700000000	0.00000000000000	0.00000000000000	0.00000000000000	0.00000000000000	
0.25666700000000	43.59512200000000	797.42506600000002	54.43943700000000	0.26256100000000	0.00000000000000	0.09705300000000	0.00000000000000	0.00000000000000	0.00000000000000	0.00000000000000	0.00000000000000	0.00000000000000	0.00000000000000	19.41307200000000	0.00000000000000	0.00000000000000	0.00000000000000	0.00000000000000	
0.25833300000000	43.02261900000000	796.44603700000005	54.30516000000000	0.26155000000000	0.00000000000000	0.09706600000000	0.00000000000000	0.00000000000000	0.00000000000000	0.00000000000000	0.00000000000000	0.00000000000000	0.00000000000000	19.34281300000000	0.00000000000000	0.00000000000000	0.00000000000000	0.00000000000000	
0.25999900000000	42.44778100000000	795.33164899999997	54.15765100000000	0.26051700000000	0.00000000000000	0.09708000000000	0.00000000000000	0.00000000000000	0.00000000000000	0.00000000000000	0.00000000000000	0.00000000000000	0.00000000000000	19.26656000000000	0.00000000000000	0.00000000000000	0.00000000000000	0.00000000000000	
0.26166700000000	41.87054500000000	794.08599100000004	53.99691500000000	0.25946200000000	0.00000000000000	0.09709400000000	0.00000000000000	0.00000000000000	0.00000000000000	0.00000000000000	0.00000000000000	0.00000000000000	0.00000000000000	19.18434300000000	0.00000000000000	0.00000000000000	0.00000000000000	0.00000000000000	
0.26333100000000	41.29086600000000	792.71336799999995	53.82300000000000	0.25838400000000	0.00000000000000	0.09710800000000	0.00000000000000	0.00000000000000	0.00000000000000	0.00000000000000	0.00000000000000	0.00000000000000	0.00000000000000	19.09621600000000	0.00000000000000	0.00000000000000	0.00000000000000	0.00000000000000	
0.26499700000000	40.70871900000000	791.21829200000002	53.63600800000000	0.25728400000000	0.00000000000000	0.09712200000000	0.00000000000000	0.00000000000000	0.00000000000000	0.00000000000000	0.00000000000000	0.00000000000000	0.00000000000000	19.00226200000000	0.00000000000000	0.00000000000000	0.00000000000000	0.00000000000000	
0.26666100000000	40.12410000000000	789.60547399999996	53.43608800000000	0.25616100000000	0.00000000000000	0.09713600000000	0.00000000000000	0.00000000000000	0.00000000000000	0.00000000000000	0.00000000000000	0.00000000000000	0.00000000000000	18.90259000000000	0.00000000000000	0.00000000000000	0.00000000000000	0.00000000000000	
0.26832800000000	39.53702500000000	787.87981200000002	53.22343900000000	0.25501500000000	0.00000000000000	0.09714900000000	0.00000000000000	0.00000000000000	0.00000000000000	0.00000000000000	0.00000000000000	0.00000000000000	0.00000000000000	18.79733400000000	0.00000000000000	0.00000000000000	0.00000000000000	0.00000000000000	
